# xmcd
#
# Track frame offsets: 
#        150
#        23045
#        47128
#        53300
#        57920
#        75110
#        96301
#        118489
#        137613
#        142074
#        154753
#        171789
#        183218
#        192068
#
# Disc length: 2674 seconds
#
# Revision: 0
# Processed by: cddbd v1.5.1PL2 Copyright (c) Steve Scherf et al.
# Submitted via: ExactAudioCopy v0.95b2
#
DISCID=b20a700e
DTITLE=Bunmei Ogawa - moogie woogie - The Secret of moogie Life
DYEAR=2005
DGENRE=Techno
TTITLE0=Where didi that monster go?
TTITLE1=Storm by the Lake
TTITLE2=Momo
TTITLE3=No Passing
TTITLE4=Rain Stick
TTITLE5=fis
TTITLE6=7 Wonders Woogie
TTITLE7=2 match or too much?
TTITLE8=Swiched on Carlos
TTITLE9=Walter
TTITLE10=Wendy
TTITLE11=Moogie Paradise
TTITLE12=The show(Last greeting from Mrs.Emphasis)
TTITLE13=Reprise~Talky(Mrs.Emphasis plays an unwelcome curtain call)
EXTD=
EXTT0=
EXTT1=
EXTT2=
EXTT3=
EXTT4=
EXTT5=
EXTT6=
EXTT7=
EXTT8=
EXTT9=
EXTT10=
EXTT11=
EXTT12=
EXTT13=
PLAYORDER=
